Simulation
nRows=23
nColumns=15
endheader
time  TH_x TH_y TH_z SC_y  SC_z  SC_x  AC_y  AC_z  AC_x  GH_y  GH_z  GH_yy  EL_x  PS_y
1.4000000000000004  0.000000  0.000000  0.000000  -25.705741443512146  7.7246137511148385  21.08650757430686  58.84588521932931  13.289533361898865  8.033430956122443  33.108280797429885  60.45191483442237  -12.416684157581928  10.340220757412979  120.000000
1.4280000000000004  0.000000  0.000000  0.000000  -26.036934993778928  7.708789546329882  21.582092597571066  59.088732779642775  13.273570385050816  8.187454428798382  32.80255510373051  60.536616829597634  -12.38357569845575  10.320074668078057  120.000000
1.4560000000000004  0.000000  0.000000  0.000000  -26.309864589793303  7.689635285418505  22.00223855239857  59.29517685249851  13.24586944219053  8.305263689511516  32.55446710698374  60.59647243938642  -12.330882585068924  10.29691318259289  120.000000
1.4840000000000004  0.000000  0.000000  0.000000  -26.513351478021104  7.669867444213268  22.33989837306788  59.46289689237027  13.202516439095131  8.381879578639285  32.37128396544263  60.63290090831619  -12.26753258590491  10.27034943154407  120.000000
1.5120000000000005  0.000000  0.000000  0.000000  -26.640637692648536  7.6508195616979  22.589676156715093  59.58999210309833  13.141095057667641  8.412011492230105  32.26000107364027  60.64650027102736  -12.201388679219724  10.24128336516029  120.000000
1.5400000000000005  0.000000  0.000000  0.000000  -26.689837356660206  7.63231806095304  22.747763114724194  59.675062902562765  13.060847962467312  8.390339390117084  32.226830869221104  60.63761193806694  -12.138611510345976  10.211816928145927  120.000000
1.5680000000000005  0.000000  0.000000  0.000000  -26.663560188222917  7.612781179218817  22.811928389130625  59.71736711526266  12.962636696020255  8.312240040545431  32.27691064246997  60.60551240082901  -12.083158881979443  10.184790448153198  120.000000
1.5960000000000005  0.000000  0.000000  0.000000  -26.567496772933453  7.589527618664989  22.780906850935  59.71702028450256  12.848292646631691  8.174350759608426  32.414100121804154  60.54934120968757  -12.036405117645353  10.162761126979815  120.000000
1.6240000000000003  0.000000  0.000000  0.000000  -26.409070126182474  7.559168343026829  22.654506677406943  59.675103933425056  12.720354837878832  7.975472653848005  32.6409982306164  60.46685050350363  -11.997294050023093  10.147149944750694  120.000000
1.6520000000000004  0.000000  0.000000  0.000000  -26.19596432961523  7.517967076833686  22.43296966651788  59.59372054099042  12.581234880279245  7.716763655405898  32.95895619192606  60.355629790570994  -11.961989549861872  10.137308165942772  120.000000
1.6800000000000004  0.000000  0.000000  0.000000  -25.935461517244043  7.462221792700559  22.117449432729156  59.47572780036892  12.43318416239204  7.402202069482292  33.36822875609616  60.21160861003724  -11.9244398033943  10.130460635494359  120.000000
1.7080000000000004  0.000000  0.000000  0.000000  -25.634211628352283  7.388646960335204  21.70958174286775  59.324353061380634  12.277737527931045  7.037952118248076  33.86803703524143  60.03032144625826  -11.87610919815886  10.122024479281176  120.000000
1.7360000000000004  0.000000  0.000000  0.000000  -25.29866706535323  7.294500407880328  21.212210852325352  59.142379160632736  12.115921704976163  6.632393524612482  34.45661261836733  59.8054435430869  -11.80687097081165  10.10681008650023  120.000000
1.7640000000000005  0.000000  0.000000  0.000000  -24.935613113623237  7.178213345022673  20.629325430276708  58.931752835491785  11.948228504230858  6.1948802682916755  35.13119439453918  59.530050533635  -11.704905081413091  10.080150454275428  120.000000
1.7920000000000005  0.000000  0.000000  0.000000  -24.552956907131694  7.0395977843901845  19.965948541481286  58.69298857337389  11.774408039445184  5.734240879466612  35.88738483830294  59.19529673924848  -11.557464976242251  10.038800970657004  120.000000
1.8200000000000005  0.000000  0.000000  0.000000  -24.158760112432958  6.880165028769944  19.234012104185265  58.42449107186583  11.597703791600344  5.263532990430445  36.713899578131446  58.772058077662  -11.35860124566162  9.98279144216426  120.000000
1.8480000000000005  0.000000  0.000000  0.000000  -23.759550940714078  6.704030495887897  18.45539314149388  58.1236854863492  11.428256698550426  4.802328761861885  37.59044440815923  58.20108979895481  -11.11481633517187  9.916504025899401  120.000000
1.8760000000000006  0.000000  0.000000  0.000000  -23.36114764873805  6.517693267236084  17.65088097620714  57.789219388347654  11.276797772317247  4.366904998136905  38.49595390168359  57.42632291307701  -10.833972488953707  9.84634717131163  120.000000
1.9040000000000006  0.000000  0.000000  0.000000  -22.969287525343635  6.328099353433193  16.832810350462935  57.42192340605778  11.149059889478604  3.964572570199839  39.41555110480796  56.42192594655482  -10.515864120967342  9.77949144520261  120.000000
1.9320000000000006  0.000000  0.000000  0.000000  -22.58839066847047  6.140964229099605  16.0094499598734  57.024946732585114  11.047180855429952  3.5986402387280014  40.33854380790889  55.18592128153229  -10.154906369765763  9.72470208949353  120.000000
1.9600000000000006  0.000000  0.000000  0.000000  -22.22170519517995  5.9604305421926185  15.186913902666356  56.603174201428565  10.97090996292932  3.270426309367104  41.255357059250365  53.732318500703514  -9.74147153471592  9.692286747453782  120.000000
1.9880000000000004  0.000000  0.000000  0.000000  -21.871260970351777  5.788964250530397  14.369028590161564  56.16326778184804  10.918410637989648  2.980073264660759  42.15528223227246  52.08521072929332  -9.262900599033625  9.69338876455467  120.000000
2.0160000000000005  0.000000  0.000000  0.000000  -21.53813955126623  5.626724044114874  13.558058571414836  55.713337245935215  10.886556820452224  2.7278362814992616  43.02538579542698  50.272985572707  -8.704513275343029  9.739481950393849  120.000000
